REM DIRINDEX 1\2\6,1\2\7,1\2\8,1\2\9,1\3\10,1\3\11,1\4\12,1\4\13,1\4\14,1\5\15,1\5\16,1\5\17
REM DIRNAME cjc029,folder01,folder02,folder03,folder04,folder05,folder06,folder07,folder08,folder09,folder10,folder11,folder12,folder13,folder14,folder15,folder16
TITLE ""
FILE "1400_2_sec13_1249_1265.mp3" MP3
  TRACK 01 AUDIO
    TITLE "0:"
    INDEX 01 00:00:00
  TRACK 02 AUDIO
    TITLE "13:cjc029_4116"
    INDEX 01 00:00:19
  TRACK 03 AUDIO
    TITLE "0:"
    INDEX 01 00:01:34
  TRACK 04 AUDIO
    TITLE "14:cjc029_4117"
    INDEX 01 00:01:40
  TRACK 05 AUDIO
    TITLE "0:"
    INDEX 01 00:04:01
  TRACK 06 AUDIO
    TITLE "13:cjc029_4118"
    INDEX 01 00:04:58
  TRACK 07 AUDIO
    TITLE "0:"
    INDEX 01 00:06:12
  TRACK 08 AUDIO
    TITLE "14:cjc029_4119"
    INDEX 01 00:06:16
  TRACK 09 AUDIO
    TITLE "0:"
    INDEX 01 00:08:32
  TRACK 10 AUDIO
    TITLE "13:cjc029_4120"
    INDEX 01 00:09:12
  TRACK 11 AUDIO
    TITLE "0:"
    INDEX 01 00:10:29
  TRACK 12 AUDIO
    TITLE "14:cjc029_4121"
    INDEX 01 00:10:35
  TRACK 13 AUDIO
    TITLE "0:"
    INDEX 01 00:12:61
  TRACK 14 AUDIO
    TITLE "13:cjc029_4122"
    INDEX 01 00:13:43
  TRACK 15 AUDIO
    TITLE "0:"
    INDEX 01 00:14:47
  TRACK 16 AUDIO
    TITLE "14:cjc029_4123"
    INDEX 01 00:14:53
  TRACK 17 AUDIO
    TITLE "0:"
    INDEX 01 00:18:46
  TRACK 18 AUDIO
    TITLE "13:cjc029_4124"
    INDEX 01 00:19:28
  TRACK 19 AUDIO
    TITLE "0:"
    INDEX 01 00:20:37
  TRACK 20 AUDIO
    TITLE "14:cjc029_4125"
    INDEX 01 00:20:41
  TRACK 21 AUDIO
    TITLE "0:"
    INDEX 01 00:22:52
  TRACK 22 AUDIO
    TITLE "13:cjc029_4126"
    INDEX 01 00:23:34
  TRACK 23 AUDIO
    TITLE "0:"
    INDEX 01 00:24:51
  TRACK 24 AUDIO
    TITLE "14:cjc029_4127"
    INDEX 01 00:24:57
  TRACK 25 AUDIO
    TITLE "0:"
    INDEX 01 00:26:62
  TRACK 26 AUDIO
    TITLE "13:cjc029_4128"
    INDEX 01 00:27:47
  TRACK 27 AUDIO
    TITLE "0:"
    INDEX 01 00:28:57
  TRACK 28 AUDIO
    TITLE "14:cjc029_4129"
    INDEX 01 00:28:62
  TRACK 29 AUDIO
    TITLE "0:"
    INDEX 01 00:30:08
  TRACK 30 AUDIO
    TITLE "13:cjc029_4130"
    INDEX 01 00:30:63
  TRACK 31 AUDIO
    TITLE "0:"
    INDEX 01 00:31:71
  TRACK 32 AUDIO
    TITLE "14:cjc029_4131"
    INDEX 01 00:32:01
  TRACK 33 AUDIO
    TITLE "0:"
    INDEX 01 00:34:28
  TRACK 34 AUDIO
    TITLE "13:cjc029_4132"
    INDEX 01 00:35:10
  TRACK 35 AUDIO
    TITLE "0:"
    INDEX 01 00:36:21
  TRACK 36 AUDIO
    TITLE "14:cjc029_4133"
    INDEX 01 00:36:27
  TRACK 37 AUDIO
    TITLE "0:"
    INDEX 01 00:40:17
  TRACK 38 AUDIO
    TITLE "13:cjc029_4134"
    INDEX 01 00:41:00
  TRACK 39 AUDIO
    TITLE "0:"
    INDEX 01 00:42:19
  TRACK 40 AUDIO
    TITLE "14:cjc029_4135"
    INDEX 01 00:42:23
  TRACK 41 AUDIO
    TITLE "0:"
    INDEX 01 00:43:29
  TRACK 42 AUDIO
    TITLE "13:cjc029_4136"
    INDEX 01 00:44:12
  TRACK 43 AUDIO
    TITLE "0:"
    INDEX 01 00:45:24
  TRACK 44 AUDIO
    TITLE "14:cjc029_4137"
    INDEX 01 00:45:28
  TRACK 45 AUDIO
    TITLE "0:"
    INDEX 01 00:46:35
  TRACK 46 AUDIO
    TITLE "13:cjc029_4138"
    INDEX 01 00:47:15
  TRACK 47 AUDIO
    TITLE "0:"
    INDEX 01 00:48:32
  TRACK 48 AUDIO
    TITLE "14:cjc029_4139"
    INDEX 01 00:48:36
  TRACK 49 AUDIO
    TITLE "0:"
    INDEX 01 00:51:01
  TRACK 50 AUDIO
    TITLE "13:cjc029_4140"
    INDEX 01 00:51:56
  TRACK 51 AUDIO
    TITLE "0:"
    INDEX 01 00:52:61
  TRACK 52 AUDIO
    TITLE "14:cjc029_4141"
    INDEX 01 00:52:67
  TRACK 53 AUDIO
    TITLE "0:"
    INDEX 01 00:55:14
  TRACK 54 AUDIO
    TITLE "13:cjc029_4142"
    INDEX 01 00:56:06
  TRACK 55 AUDIO
    TITLE "0:"
    INDEX 01 00:57:11
  TRACK 56 AUDIO
    TITLE "14:cjc029_4143"
    INDEX 01 00:57:17
  TRACK 57 AUDIO
    TITLE "0:"
    INDEX 01 01:01:03
  TRACK 58 AUDIO
    TITLE "13:cjc029_4144"
    INDEX 01 01:01:60
  TRACK 59 AUDIO
    TITLE "0:"
    INDEX 01 01:02:73
  TRACK 60 AUDIO
    TITLE "14:cjc029_4145"
    INDEX 01 01:03:04
  TRACK 61 AUDIO
    TITLE "0:"
    INDEX 01 01:05:50
  TRACK 62 AUDIO
    TITLE "13:cjc029_4146"
    INDEX 01 01:06:30
  TRACK 63 AUDIO
    TITLE "0:"
    INDEX 01 01:07:29
  TRACK 64 AUDIO
    TITLE "14:cjc029_4147"
    INDEX 01 01:07:35
  TRACK 65 AUDIO
    TITLE "0:"
    INDEX 01 01:12:48
  TRACK 66 AUDIO
    TITLE "13:cjc029_4148"
    INDEX 01 01:13:28
  TRACK 67 AUDIO
    TITLE "0:"
    INDEX 01 01:14:39
  TRACK 68 AUDIO
    TITLE "14:cjc029_4149"
    INDEX 01 01:14:45
  TRACK 69 AUDIO
    TITLE "0:"
    INDEX 01 01:17:28
